<svg width="230" height="230" viewBox="0 0 230 230" fill="none" xmlns="http://www.w3.org/2000/svg">
<path d="M230 115C230 99.898 227.025 84.9438 221.246 70.9914C215.467 57.039 206.996 44.3615 196.317 33.6827C185.639 23.004 172.961 14.5331 159.009 8.75385C145.056 2.97456 130.102 -6.6013e-07 115 0L115 47.376C123.881 47.376 132.674 49.1252 140.879 52.5236C149.083 55.922 156.538 60.9032 162.817 67.1826C169.097 73.4621 174.078 80.9169 177.476 89.1214C180.875 97.3259 182.624 106.119 182.624 115H230Z" fill="#BD00FF"/>
<path d="M115 0C84.5001 -3.63708e-07 55.2494 12.116 33.6827 33.6827C12.116 55.2494 2.66639e-06 84.5001 0 115L47.38 115C47.38 97.0661 54.5042 79.8666 67.1854 67.1854C79.8667 54.5042 97.0661 47.38 115 47.38L115 0Z" fill="#FF0000"/>
<path d="M115 230C130.102 230 145.056 227.025 159.009 221.246C172.961 215.467 185.639 206.996 196.317 196.317C206.996 185.639 215.467 172.961 221.246 159.009C227.025 145.056 230 130.102 230 115H182.62C182.62 123.88 180.871 132.673 177.473 140.877C174.075 149.081 169.094 156.535 162.815 162.815C156.535 169.094 149.081 174.075 140.877 177.473C132.673 180.871 123.88 182.62 115 182.62L115 230Z" fill="#FAFF00"/>
<path d="M0 115C-1.32026e-06 130.102 2.97456 145.056 8.75385 159.009C14.5331 172.961 23.004 185.639 33.6827 196.317C44.3615 206.996 57.039 215.467 70.9914 221.246C84.9438 227.025 99.898 230 115 230L115 182.62C106.12 182.62 97.327 180.871 89.1229 177.473C80.9189 174.075 73.4645 169.094 67.1854 162.815C60.9063 156.535 55.9255 149.081 52.5273 140.877C49.129 132.673 47.38 123.88 47.38 115L0 115Z" fill="#42FF00"/>
</svg>
